<?xml version="1.0" encoding="UTF-8"?>
<!DOCTYPE svg PUBLIC "-//W3C//DTD SVG 1.1//EN" "http://www.w3.org/Graphics/SVG/1.1/DTD/svg11.dtd">
<!-- Creator: CorelDRAW X6 -->
<svg xmlns="http://www.w3.org/2000/svg" xml:space="preserve" width="1421px" height="500px" version="1.1" style="shape-rendering:geometricPrecision; text-rendering:geometricPrecision; image-rendering:optimizeQuality; fill-rule:evenodd; clip-rule:evenodd"
viewBox="0 0 1654148 582172"
 xmlns:xlink="http://www.w3.org/1999/xlink">
 <defs>
  <style type="text/css">
   <![CDATA[
    .str0 {stroke:#606062;stroke-width:18779.7}
    .fil0 {fill:none}
    .fil1 {fill:#F06437}
    .fil2 {fill:#606062;fill-rule:nonzero}
    .fil3 {fill:#F06437;fill-rule:nonzero}
   ]]>
  </style>
 </defs>
 <g id="Camada_x0020_1">
  <metadata id="CorelCorpID_0Corel-Layer"/>
  <circle class="fil0 str0" cx="291086" cy="291086" r="281696"/>
  <path class="fil1" d="M291086 43796c138290,0 250396,112106 250396,250396 0,112238 -73848,207225 -175605,239032 -1703,-12803 -3847,-33455 -5896,-55127 -2195,-23155 -4268,-46331 -5994,-69529 -946,-12722 332,-25547 -1383,-38218 -675,-4928 -6258,-18516 -3368,-22608 19908,-28158 34840,-61274 38447,-105723 16794,-22297 61001,-60737 44855,-76889 -16139,-16146 -53287,53391 -64060,54461 -1965,195 -7205,-3450 -8374,-4889 -2058,-2538 -1604,-4594 -1149,-7728 1038,-7176 3646,-13906 5841,-20780 7315,-22859 17622,-44312 20297,-68456 950,-8589 160,-17416 -10105,-19396 -15334,-2967 -16336,18087 -19945,27800 -9077,24454 -21160,70763 -25028,70763 -12415,-1 -6649,-16008 -6409,-28572 450,-23879 2068,-47725 4399,-71491 618,-6323 3403,-17138 -2448,-22350 -4237,-3778 -11650,-3730 -17149,-2806 -4969,836 -6848,7288 -7581,11292 -1100,6043 -2399,12080 -3124,18186 -1710,14475 -1950,29144 -2106,43706 -87,7819 -93,15642 -156,23463 -115,11985 -513,27008 -7074,32038 -9916,-13034 -18590,-33504 -25629,-54465 -5127,-15264 -9218,-43511 -20398,-47418 -28190,-9845 -13061,44181 -9230,54334 4358,11544 9665,22799 13767,34428 2616,7420 5010,14945 6247,22732 3350,21043 1373,61509 -22423,67277 -12741,3089 -26337,-6179 -37225,-11408 -10572,-5086 -24720,-13218 -36466,-6942 -3459,1849 -6854,4883 -8818,8286 -5526,9571 1027,13794 9185,17719 9557,4584 18903,9615 28429,14270 18743,9152 37762,18114 54995,29984 4625,3190 9145,6546 13403,10226 1860,1609 11918,9116 11731,11551 -4967,67663 -18628,126644 -30482,187432 -111513,-25301 -194763,-125015 -194763,-244184 0,-138290 112106,-250396 250396,-250396z"/>
  <g id="_670102928">
   <path class="fil2" d="M634591 159302c0,-10684 1591,-20107 4772,-28271 3181,-8163 7503,-14976 12965,-20438 5462,-5462 11825,-9573 19088,-12335 7263,-2761 14976,-4142 23139,-4142 8043,0 15637,1380 22779,4142 7143,2761 13415,6873 18817,12335 5402,5462 9694,12275 12875,20438 3181,8164 4772,17587 4772,28271 0,10684 -1591,20108 -4772,28271 -3181,8164 -7472,14976 -12875,20438 -5402,5462 -11675,9574 -18817,12335 -7143,2761 -14736,4142 -22779,4142 -8163,0 -15876,-1381 -23139,-4142 -7263,-2761 -13625,-6873 -19088,-12335 -5462,-5462 -9784,-12274 -12965,-20438 -3181,-8163 -4772,-17587 -4772,-28271zm18367 0c0,7563 960,14436 2881,20618 1921,6182 4652,11434 8194,15756 3541,4322 7863,7653 12965,9994 5102,2341 10834,3511 17197,3511 6363,0 12065,-1171 17107,-3511 5042,-2341 9334,-5672 12875,-9994 3541,-4322 6272,-9574 8193,-15756 1921,-6182 2881,-13055 2881,-20618 0,-7563 -960,-14435 -2881,-20618 -1921,-6182 -4652,-11434 -8193,-15756 -3541,-4322 -7833,-7653 -12875,-9994 -5042,-2341 -10745,-3511 -17107,-3511 -6363,0 -12095,1170 -17197,3511 -5102,2341 -9424,5672 -12965,9994 -3541,4322 -6272,9574 -8194,15756 -1921,6182 -2881,13055 -2881,20618z"/>
   <path id="1" class="fil2" d="M778647 130851c3842,-960 8913,-1981 15216,-3061 6302,-1080 13595,-1621 21879,-1621 6002,0 11044,810 15126,2431 4081,1621 7503,3991 10264,7113 841,-600 2161,-1440 3962,-2521 1800,-1080 4021,-2131 6662,-3151 2641,-1020 5582,-1921 8823,-2701 3241,-780 6723,-1170 10444,-1170 7203,0 13085,1050 17647,3151 4562,2101 8134,5072 10714,8913 2581,3841 4322,8403 5222,13685 900,5282 1350,11044 1350,17287l0 52581 -16747 0 0 -48979c0,-5522 -270,-10264 -810,-14226 -540,-3962 -1561,-7263 -3061,-9904 -1501,-2641 -3542,-4592 -6123,-5852 -2581,-1261 -5912,-1891 -9994,-1891 -5642,0 -10294,751 -13955,2251 -3661,1501 -6152,2851 -7473,4051 961,3121 1681,6543 2161,10264 480,3722 721,7623 721,11704l0 52581 -16747 0 0 -48979c0,-5522 -300,-10264 -900,-14226 -600,-3962 -1651,-7263 -3151,-9904 -1501,-2641 -3542,-4592 -6123,-5852 -2581,-1261 -5852,-1891 -9814,-1891 -1681,0 -3481,60 -5402,180 -1921,120 -3751,270 -5492,450 -1741,180 -3332,391 -4772,630 -1440,240 -2401,420 -2881,540l0 79051 -16747 0 0 -90935z"/>
   <path id="2" class="fil2" d="M950434 132291c2041,-1321 5133,-2701 9274,-4142 4142,-1440 8913,-2161 14315,-2161 6723,0 12695,1201 17917,3601 5222,2401 9634,5762 13235,10084 3601,4322 6333,9484 8193,15486 1861,6003 2791,12605 2791,19808 0,7563 -1111,14376 -3332,20438 -2220,6063 -5372,11195 -9454,15396 -4081,4202 -9003,7443 -14765,9724 -5762,2281 -12245,3422 -19448,3422 -7803,0 -14706,-540 -20708,-1621 -6002,-1080 -10924,-2161 -14766,-3241l0 -134152 16747 -2881 0 50240zm0 74909c1681,480 4052,930 7113,1350 3061,420 6873,630 11434,630 9004,0 16206,-2971 21609,-8913 5402,-5943 8103,-14375 8103,-25300 0,-4801 -480,-9303 -1440,-13505 -960,-4202 -2521,-7833 -4682,-10894 -2161,-3061 -4952,-5462 -8373,-7203 -3421,-1741 -7533,-2611 -12335,-2611 -4562,0 -8764,780 -12605,2341 -3842,1561 -6783,3181 -8824,4862l0 59243z"/>
   <path id="3" class="fil2" d="M1114297 219085c-3842,960 -8913,1981 -15216,3061 -6302,1080 -13595,1621 -21878,1621 -7203,0 -13265,-1050 -18187,-3151 -4922,-2101 -8883,-5072 -11885,-8913 -3001,-3841 -5162,-8373 -6482,-13595 -1321,-5222 -1981,-11014 -1981,-17377l0 -52580 16747 0 0 48979c0,11405 1800,19568 5402,24490 3601,4922 9664,7382 18187,7382 1801,0 3661,-59 5583,-180 1921,-120 3722,-270 5402,-450 1680,-180 3211,-361 4592,-540 1380,-180 2371,-391 2971,-630l0 -79051 16747 0 0 90935z"/>
   <path id="4" class="fil2" d="M1203613 147957c-2041,-1681 -4982,-3301 -8823,-4862 -3842,-1561 -8043,-2341 -12605,-2341 -4802,0 -8913,870 -12335,2611 -3421,1740 -6212,4142 -8373,7203 -2160,3061 -3721,6692 -4682,10894 -960,4202 -1440,8704 -1440,13505 0,10925 2701,19358 8103,25300 5402,5943 12605,8913 21608,8913 4562,0 8373,-210 11434,-630 3062,-420 5432,-870 7113,-1350l0 -59243zm0 -63025l16747 -2881 0 137033c-3842,1080 -8763,2161 -14766,3241 -6002,1080 -12905,1621 -20708,1621 -7203,0 -13685,-1141 -19448,-3422 -5762,-2280 -10684,-5522 -14766,-9724 -4081,-4202 -7233,-9334 -9454,-15396 -2221,-6062 -3332,-12875 -3332,-20438 0,-7203 931,-13805 2791,-19808 1861,-6002 4592,-11164 8193,-15486 3602,-4322 8013,-7683 13235,-10084 5222,-2401 11195,-3601 17917,-3601 5402,0 10174,721 14316,2161 4142,1440 7233,2821 9273,4142l0 -47359z"/>
   <path id="5" class="fil2" d="M1270959 209721c6843,0 11914,-900 15216,-2701 3301,-1800 4952,-4682 4952,-8643 0,-4081 -1621,-7323 -4861,-9724 -3241,-2401 -8584,-5102 -16027,-8103 -3601,-1440 -7052,-2911 -10354,-4412 -3301,-1501 -6152,-3271 -8554,-5312 -2401,-2041 -4321,-4502 -5762,-7383 -1440,-2881 -2161,-6422 -2161,-10624 0,-8283 3062,-14856 9184,-19718 6122,-4861 14465,-7293 25030,-7293 2641,0 5282,150 7923,450 2641,300 5102,660 7383,1080 2281,421 4292,871 6032,1351 1741,480 3091,900 4052,1260l-3062 14406c-1800,-960 -4622,-1951 -8463,-2971 -3842,-1020 -8463,-1531 -13866,-1531 -4682,0 -8763,930 -12244,2791 -3482,1861 -5223,4772 -5223,8734 0,2041 391,3841 1171,5402 781,1561 1981,2972 3601,4232 1621,1261 3631,2431 6033,3511 2401,1080 5282,2221 8643,3422 4442,1681 8403,3331 11885,4952 3481,1621 6452,3512 8913,5673 2461,2160 4351,4771 5672,7833 1320,3061 1981,6813 1981,11254 0,8644 -3211,15186 -9634,19628 -6422,4441 -15576,6662 -27460,6662 -8283,0 -14766,-690 -19448,-2071 -4682,-1381 -7863,-2431 -9544,-3151l3061 -14406c1921,721 4982,1801 9184,3241 4202,1440 9784,2161 16747,2161z"/>
   <path id="6" class="fil2" d="M1329481 130851c3842,-960 8913,-1981 15216,-3061 6302,-1080 13595,-1621 21879,-1621 6002,0 11044,810 15126,2431 4081,1621 7503,3991 10264,7113 841,-600 2161,-1440 3962,-2521 1800,-1080 4021,-2131 6662,-3151 2641,-1020 5582,-1921 8823,-2701 3241,-780 6723,-1170 10444,-1170 7203,0 13085,1050 17647,3151 4562,2101 8134,5072 10714,8913 2581,3841 4322,8403 5222,13685 900,5282 1350,11044 1350,17287l0 52581 -16747 0 0 -48979c0,-5522 -270,-10264 -810,-14226 -540,-3962 -1561,-7263 -3061,-9904 -1501,-2641 -3542,-4592 -6123,-5852 -2581,-1261 -5912,-1891 -9994,-1891 -5642,0 -10294,751 -13955,2251 -3661,1501 -6152,2851 -7473,4051 961,3121 1681,6543 2161,10264 480,3722 721,7623 721,11704l0 52581 -16747 0 0 -48979c0,-5522 -300,-10264 -900,-14226 -600,-3962 -1651,-7263 -3151,-9904 -1501,-2641 -3542,-4592 -6123,-5852 -2581,-1261 -5852,-1891 -9814,-1891 -1681,0 -3481,60 -5402,180 -1921,120 -3751,270 -5492,450 -1741,180 -3332,391 -4772,630 -1440,240 -2401,420 -2881,540l0 79051 -16747 0 0 -90935z"/>
   <path id="7" class="fil2" d="M1516215 209721c3961,0 7473,-90 10534,-270 3061,-180 5612,-510 7653,-991l0 -27910c-1201,-600 -3151,-1111 -5852,-1531 -2701,-420 -5972,-630 -9814,-630 -2521,0 -5192,180 -8013,540 -2821,360 -5402,1111 -7743,2251 -2341,1140 -4292,2701 -5852,4682 -1561,1981 -2341,4592 -2341,7833 0,6002 1921,10174 5762,12515 3842,2341 9064,3511 15666,3511zm-1440 -83913c6723,0 12395,871 17016,2611 4622,1741 8343,4202 11165,7383 2821,3181 4832,6963 6032,11345 1201,4381 1801,9213 1801,14495l0 58523c-1440,240 -3452,570 -6033,990 -2581,420 -5492,811 -8733,1171 -3241,360 -6753,690 -10534,990 -3782,300 -7533,450 -11254,450 -5282,0 -10144,-540 -14586,-1621 -4442,-1080 -8284,-2791 -11524,-5132 -3241,-2341 -5762,-5432 -7563,-9273 -1801,-3842 -2701,-8463 -2701,-13866 0,-5162 1050,-9603 3151,-13325 2101,-3722 4952,-6723 8554,-9004 3601,-2281 7803,-3961 12605,-5042 4802,-1080 9844,-1621 15126,-1621 1681,0 3421,90 5222,270 1800,180 3511,420 5132,721 1621,300 3031,570 4232,810 1201,240 2041,420 2521,540l0 -4682c0,-2761 -300,-5492 -900,-8193 -600,-2701 -1681,-5102 -3241,-7203 -1561,-2101 -3691,-3782 -6393,-5042 -2701,-1260 -6212,-1890 -10534,-1890 -5522,0 -10354,390 -14495,1171 -4142,780 -7233,1591 -9273,2431l-1981 -13866c2161,-960 5762,-1890 10804,-2791 5042,-901 10504,-1351 16387,-1351z"/>
   <path id="8" class="fil2" d="M1578518 130851c3842,-960 8944,-1981 15306,-3061 6363,-1080 13685,-1621 21969,-1621 7443,0 13625,1050 18547,3151 4922,2101 8853,5042 11794,8823 2942,3782 5012,8313 6212,13595 1201,5282 1801,11104 1801,17466l0 52581 -16747 0 0 -48979c0,-5762 -390,-10684 -1171,-14766 -780,-4081 -2071,-7383 -3871,-9904 -1801,-2521 -4202,-4352 -7203,-5492 -3001,-1141 -6723,-1711 -11164,-1711 -1801,0 -3661,60 -5583,180 -1921,120 -3751,270 -5492,450 -1741,180 -3301,391 -4682,630 -1381,240 -2371,420 -2972,540l0 79051 -16747 0 0 -90935z"/>
   <path id="9" class="fil2" d="M634591 361160c0,-10684 1591,-20107 4772,-28271 3181,-8163 7503,-14976 12965,-20438 5462,-5462 11825,-9573 19088,-12335 7263,-2761 14976,-4142 23139,-4142 8043,0 15637,1380 22779,4142 7143,2761 13415,6873 18817,12335 5402,5462 9694,12275 12875,20438 3181,8164 4772,17587 4772,28271 0,10684 -1591,20108 -4772,28271 -3181,8164 -7472,14976 -12875,20438 -5402,5462 -11675,9574 -18817,12335 -7143,2761 -14736,4142 -22779,4142 -8163,0 -15876,-1381 -23139,-4142 -7263,-2761 -13625,-6873 -19088,-12335 -5462,-5462 -9784,-12274 -12965,-20438 -3181,-8163 -4772,-17587 -4772,-28271zm18367 0c0,7563 960,14436 2881,20618 1921,6182 4652,11434 8194,15756 3541,4322 7863,7653 12965,9994 5102,2341 10834,3511 17197,3511 6363,0 12065,-1171 17107,-3511 5042,-2341 9334,-5672 12875,-9994 3541,-4322 6272,-9574 8193,-15756 1921,-6182 2881,-13055 2881,-20618 0,-7563 -960,-14435 -2881,-20618 -1921,-6182 -4652,-11434 -8193,-15756 -3541,-4322 -7833,-7653 -12875,-9994 -5042,-2341 -10745,-3511 -17107,-3511 -6363,0 -12095,1170 -17197,3511 -5102,2341 -9424,5672 -12965,9994 -3541,4322 -6272,9574 -8194,15756 -1921,6182 -2881,13055 -2881,20618z"/>
   <path id="10" class="fil2" d="M815201 283910c4922,0 9153,360 12694,1080 3542,720 6033,1380 7473,1981l-3061 14406c-1440,-721 -3481,-1411 -6122,-2071 -2641,-660 -5882,-991 -9724,-991 -7803,0 -13265,2131 -16386,6393 -3121,4262 -4682,9994 -4682,17197l0 8103 36015 0 0 14045 -36015 0 0 79591 -16747 0 0 -102100c0,-12005 2942,-21278 8824,-27821 5882,-6542 15126,-9814 27731,-9814zm70227 0c4202,0 7804,270 10805,810 3001,540 5162,1050 6482,1531l-2341 14406c-1321,-480 -3121,-990 -5402,-1531 -2280,-540 -5042,-811 -8283,-811 -7803,0 -13265,2131 -16387,6393 -3121,4262 -4682,9994 -4682,17197l0 8103 36015 0 0 14045 -36015 0 0 79591 -16747 0 0 -102100c0,-12005 2942,-21278 8823,-27821 5882,-6542 15126,-9814 27731,-9814zm50420 139734l-16747 0 0 -93636 16747 0 0 93636zm-8463 -110563c-3001,0 -5552,-990 -7653,-2971 -2101,-1981 -3151,-4652 -3151,-8013 0,-3361 1050,-6032 3151,-8013 2101,-1981 4652,-2972 7653,-2972 3002,0 5553,990 7653,2972 2101,1981 3151,4652 3151,8013 0,3362 -1050,6033 -3151,8013 -2101,1981 -4652,2971 -7653,2971z"/>
   <path id="11" class="fil2" d="M1005356 425805c-7563,0 -14196,-1201 -19898,-3601 -5702,-2401 -10504,-5762 -14406,-10084 -3901,-4322 -6813,-9454 -8733,-15396 -1921,-5942 -2881,-12515 -2881,-19717 0,-7203 1050,-13806 3151,-19808 2101,-6003 5072,-11195 8913,-15576 3842,-4382 8554,-7803 14136,-10264 5583,-2461 11795,-3691 18638,-3691 4202,0 8403,361 12605,1080 4202,721 8223,1861 12065,3422l-3782 14226c-2521,-1201 -5432,-2161 -8733,-2881 -3301,-721 -6813,-1080 -10534,-1080 -9364,0 -16537,2942 -21518,8823 -4982,5882 -7473,14466 -7473,25750 0,5042 570,9664 1711,13866 1141,4202 2941,7803 5402,10804 2461,3001 5612,5312 9453,6933 3842,1621 8523,2431 14046,2431 4441,0 8463,-420 12065,-1261 3601,-840 6422,-1740 8463,-2701l2341 14045c-960,600 -2341,1171 -4142,1711 -1801,540 -3842,1020 -6122,1440 -2281,420 -4712,780 -7293,1080 -2581,300 -5072,450 -7472,450z"/>
   <path id="12" class="fil2" d="M1043170 377006c0,-8283 1201,-15516 3602,-21698 2401,-6183 5582,-11315 9543,-15396 3962,-4081 8523,-7143 13685,-9183 5162,-2041 10444,-3062 15846,-3062 12605,0 22268,3932 28992,11795 6723,7863 10083,19838 10083,35924 0,721 0,1651 0,2791 0,1141 -60,2191 -180,3151l-64105 0c721,9724 3541,17106 8463,22149 4922,5042 12605,7563 23049,7563 5882,0 10834,-510 14856,-1531 4021,-1020 7052,-2011 9093,-2971l2341 14045c-2041,1080 -5613,2221 -10714,3421 -5102,1201 -10894,1801 -17377,1801 -8163,0 -15216,-1231 -21158,-3691 -5943,-2461 -10835,-5852 -14676,-10174 -3842,-4321 -6692,-9454 -8554,-15396 -1860,-5943 -2791,-12455 -2791,-19538zm64286 -9183c120,-7563 -1771,-13776 -5673,-18638 -3901,-4861 -9273,-7293 -16116,-7293 -3841,0 -7233,751 -10174,2251 -2942,1501 -5432,3451 -7473,5852 -2041,2401 -3631,5162 -4772,8283 -1141,3121 -1890,6302 -2251,9544l46459 0z"/>
   <path class="fil3" d="M1340028 336006c0,7389 -1458,14485 -4374,21290 -2916,6805 -6707,13367 -11374,19686 -4666,6319 -9916,12395 -15749,18228 -5832,5833 -11568,11374 -17207,16624 -2916,2722 -6076,5784 -9479,9186 -3402,3403 -6659,6854 -9770,10353 -3111,3500 -5881,6756 -8312,9770 -2430,3014 -3937,5492 -4520,7437l86909 0 0 36455 -134739 0c-389,-2139 -583,-4861 -583,-8166 0,-3305 0,-5638 0,-6999 0,-9333 1507,-17888 4520,-25665 3014,-7777 6951,-15019 11812,-21727 4861,-6708 10353,-12979 16478,-18811 6124,-5833 12201,-11666 18228,-17499 4666,-4471 9041,-8701 13124,-12686 4083,-3986 7680,-7874 10791,-11666 3111,-3791 5541,-7583 7291,-11374 1750,-3792 2625,-7631 2625,-11520 0,-8555 -2430,-14582 -7291,-18082 -4861,-3500 -10888,-5250 -18082,-5250 -5250,0 -10159,826 -14728,2479 -4569,1653 -8749,3597 -12540,5833 -3792,2236 -7048,4471 -9770,6707 -2722,2236 -4764,4035 -6125,5395l-21582 -30331c8555,-7972 18519,-14534 29894,-19686 11374,-5153 23574,-7728 36601,-7728 11860,0 22067,1361 30623,4083 8555,2722 15603,6562 21144,11520 5541,4958 9624,10986 12249,18082 2625,7097 3937,15117 3937,24061z"/>
   <path id="1" class="fil3" d="M1424022 461997c0,8749 -2771,15408 -8312,19977 -5541,4569 -11811,6854 -18811,6854 -6999,0 -13270,-2285 -18810,-6854 -5541,-4569 -8312,-11228 -8312,-19977 0,-8749 2771,-15409 8312,-19978 5541,-4569 11811,-6853 18810,-6853 7000,0 13270,2284 18811,6853 5541,4569 8312,11228 8312,19978z"/>
   <path id="2" class="fil3" d="M1588508 383544c0,34025 -6465,60127 -19394,78306 -12930,18179 -30769,27268 -53517,27268 -22749,0 -40587,-9089 -53517,-27268 -12930,-18179 -19394,-44281 -19394,-78306 0,-16915 1701,-31886 5104,-44913 3403,-13027 8312,-24012 14728,-32955 6416,-8944 14096,-15749 23040,-20415 8944,-4666 18957,-6999 30039,-6999 22748,0 40587,9089 53517,27269 12929,18179 19394,44184 19394,78014zm-44330 0c0,-10110 -486,-19297 -1458,-27560 -972,-8264 -2528,-15409 -4667,-21436 -2138,-6028 -5055,-10694 -8749,-13999 -3695,-3305 -8264,-4958 -13707,-4958 -5444,0 -9965,1653 -13561,4958 -3597,3305 -6513,7971 -8749,13999 -2236,6027 -3840,13172 -4812,21436 -972,8263 -1458,17450 -1458,27560 0,10110 486,19346 1458,27706 972,8360 2576,15554 4812,21582 2236,6027 5153,10693 8749,13998 3597,3305 8117,4958 13561,4958 5444,0 10013,-1653 13707,-4958 3694,-3305 6610,-7971 8749,-13998 2139,-6028 3695,-13222 4667,-21582 972,-8361 1458,-17596 1458,-27706z"/>
  </g>
 </g>
</svg>
